<svg width="308" height="344" viewBox="0 0 308 344" fill="none" xmlns="http://www.w3.org/2000/svg">
<path d="M256.205 126.514C248.19 158.657 215.631 178.219 183.48 170.204C151.343 162.19 131.779 129.632 139.797 97.4918C147.808 65.3451 180.367 45.782 212.508 53.7954C244.656 61.8088 264.219 94.3702 256.204 126.515L256.205 126.514Z" fill="#F3BA2F" fill-opacity="0.75"/>
<path d="M209.347 110.173H209.35L200.178 101L193.398 107.778L192.619 108.557L191.013 110.164L191 110.176L191.013 110.189L200.178 119.356L209.351 110.183L209.356 110.178L209.347 110.173Z" fill="white" fill-opacity="0.65"/>
<path fill-rule="evenodd" clip-rule="evenodd" d="M200 91.08L184.463 106.617L184.464 106.616L175.424 97.576L200 73L224.584 97.5834L215.544 106.623L200 91.08ZM169.04 103.958L160 113L169.04 122.038L178.08 112.998L169.04 103.958ZM184.463 119.384L200 134.92L215.544 119.377L224.588 128.412L224.584 128.417L200 153L175.424 128.424L175.411 128.411L184.463 119.384ZM230.96 103.964L221.92 113.004L230.96 122.044L240 113.003L230.96 103.964Z" fill="white" fill-opacity="0.65"/>
<g opacity="0.65">
<path d="M200 152C233.14 152 260 178.865 260 212C260 245.14 233.14 272 200 272C166.865 272 140 245.137 140 212C140 178.865 166.865 152 200 152Z" fill="#F5AC37"/>
<path fill-rule="evenodd" clip-rule="evenodd" d="M171.426 245.075V245.299L171.415 245.308V245.345H197.44C200.386 245.386 203.321 245.151 206.215 244.633C209.264 244.036 212.234 243.096 215.066 241.822C216.294 241.253 217.473 240.566 218.661 239.872C218.962 239.696 219.264 239.52 219.567 239.346C220.966 238.35 222.305 237.27 223.579 236.122C227.068 232.968 229.768 229.034 231.455 224.647C231.569 224.156 232.049 223.84 232.543 223.934H239.631C240.195 223.934 240.382 223.745 240.382 223.108V218.569C240.419 218.134 240.419 217.694 240.382 217.26C240.382 217.146 240.411 217.033 240.44 216.92C240.498 216.694 240.556 216.469 240.382 216.244H234.46C233.745 216.244 233.745 216.169 233.745 215.532C233.95 213.247 233.95 210.955 233.745 208.671C233.707 207.996 233.858 207.996 234.382 207.996H239.558C240.16 207.996 240.384 207.845 240.384 207.245V201.095C240.366 200.687 240.356 200.481 240.248 200.376C240.137 200.268 239.922 200.268 239.485 200.268H232.773C232.249 200.357 231.747 200.004 231.652 199.48C230.883 197.468 229.903 195.543 228.723 193.742C227.535 191.966 226.196 190.297 224.711 188.755C222.737 186.784 220.52 185.073 218.112 183.655C214.48 181.546 210.509 180.069 206.375 179.305C204.369 178.935 202.341 178.711 200.3 178.63H172.176C171.426 178.63 171.426 178.782 171.426 179.381V199.593C171.426 200.306 171.274 200.306 170.713 200.306H162.651C162.051 200.306 162.051 200.417 162.051 200.83V207.429C162.051 208.028 162.237 208.028 162.688 208.028H170.826C171.426 208.028 171.426 208.139 171.426 208.59V215.64C171.426 216.277 171.237 216.277 170.751 216.277H162.051V223.402C162.051 224.002 162.237 224.002 162.688 224.002H170.826C171.426 224.002 171.426 224.075 171.426 224.563V233.376V236.338V245.075ZM223.215 199.664C223.28 199.831 223.28 200.017 223.215 200.187H223.396C223.32 200.411 222.945 200.487 222.945 200.487H179.671C178.959 200.487 178.959 200.336 178.959 199.774V186.463C178.959 185.974 179.034 185.75 179.596 185.75H199.733C201.877 185.731 204.015 185.956 206.107 186.425C210.255 187.408 214.113 189.363 217.358 192.125C218.006 192.608 218.584 193.178 219.084 193.813C220.142 194.863 221.071 196.032 221.859 197.301C222.383 198.044 222.834 198.835 223.215 199.664ZM225.01 216.236H202.211H179.86C179.405 216.236 179.18 216.236 179.069 216.124C178.961 216.015 178.961 215.8 178.961 215.375V208.701C178.961 208.174 179.113 207.988 179.674 207.988H225.048C225.537 207.988 225.761 208.174 225.761 208.625C225.947 210.947 225.947 213.28 225.761 215.599C225.726 216.236 225.496 216.236 225.01 216.236ZM223.215 224.037C222.578 223.967 221.935 223.967 221.298 224.037H179.712C179.15 224.037 178.961 224.037 178.961 224.787V237.801C178.961 238.401 178.961 238.552 179.712 238.552H198.912C199.83 238.622 200.748 238.557 201.647 238.366C204.433 238.166 207.174 237.561 209.788 236.565C210.738 236.235 211.656 235.806 212.523 235.29H212.785C217.286 232.95 220.941 229.272 223.247 224.758C223.247 224.758 223.509 224.191 223.215 224.042V224.037Z" fill="#FEFEFD"/>
</g>
<g opacity="0.7">
<path d="M156.263 126.031L156.193 126.312C148.327 157.216 116.949 175.988 85.9642 168.263C54.8988 160.517 35.9872 129.045 43.7376 97.9759L43.7378 97.9754C51.4815 66.9007 82.9554 47.9898 114.024 55.736L114.024 55.736C145.101 63.4823 164.011 94.9581 156.263 126.031ZM114.492 53.8583L114.508 53.7954L114.492 53.8583Z" fill="url(#paint0_linear)" stroke="#FFD9EC" stroke-width="4"/>
<path d="M90.536 89.0578C89.7237 88.9417 89.685 88.903 90.0718 88.8644C90.8068 88.7483 92.5089 88.903 93.7081 89.1738C96.4934 89.8314 99.0079 91.5333 101.677 94.5116L102.373 95.3239L103.379 95.1692C107.673 94.4729 112.083 95.0144 115.758 96.7163C116.764 97.1805 118.35 98.1088 118.543 98.3409C118.621 98.4183 118.737 98.9211 118.814 99.4239C119.085 101.242 118.969 102.596 118.389 103.64C118.079 104.22 118.079 104.375 118.273 104.878C118.427 105.265 118.891 105.535 119.317 105.535C120.245 105.535 121.213 104.065 121.677 102.015L121.87 101.203L122.218 101.59C124.191 103.795 125.739 106.85 125.971 109.016L126.048 109.597L125.7 109.094C125.12 108.204 124.578 107.624 123.843 107.121C122.528 106.232 121.135 105.961 117.46 105.767C114.133 105.574 112.238 105.303 110.381 104.684C107.209 103.64 105.584 102.286 101.832 97.2965C100.168 95.0918 99.1239 93.8927 98.0794 92.8871C95.7971 90.6823 93.5147 89.5219 90.536 89.0578Z" fill="#FF007A"/>
<path d="M119.356 93.9701C119.433 92.5003 119.626 91.5333 120.052 90.6436C120.207 90.2955 120.361 89.9861 120.4 89.9861C120.439 89.9861 120.361 90.2568 120.245 90.5663C119.936 91.4172 119.897 92.6163 120.091 93.9701C120.361 95.7107 120.478 95.9427 122.334 97.8381C123.185 98.7277 124.191 99.8494 124.578 100.314L125.236 101.165L124.578 100.546C123.766 99.772 121.909 98.3022 121.483 98.1088C121.213 97.9541 121.174 97.9541 120.98 98.1475C120.826 98.3022 120.787 98.5343 120.787 99.656C120.748 101.397 120.516 102.48 119.936 103.601C119.626 104.182 119.588 104.065 119.859 103.408C120.052 102.905 120.091 102.673 120.091 101.01C120.091 97.6447 119.704 96.8324 117.344 95.4786C116.764 95.1305 115.758 94.6276 115.178 94.3569C114.559 94.0861 114.095 93.854 114.133 93.854C114.211 93.7767 116.493 94.4342 117.383 94.821C118.737 95.3626 118.969 95.4012 119.124 95.3626C119.24 95.2465 119.317 94.9371 119.356 93.9701Z" fill="#FF007A"/>
<path d="M92.1218 99.7334C90.4973 97.4899 89.4529 94.0088 89.685 91.4172L89.7624 90.6049L90.1492 90.6823C90.8454 90.7983 92.0445 91.2625 92.6247 91.6106C94.1718 92.5389 94.8681 93.8154 95.5256 96.9871C95.719 97.9154 95.9898 98.9985 96.1058 99.3466C96.2992 99.9268 97.0341 101.281 97.653 102.132C98.0785 102.75 97.8077 103.06 96.8408 102.982C95.3709 102.828 93.3983 101.474 92.1218 99.7334Z" fill="#FF007A"/>
<path d="M117.383 116.559C109.723 113.465 107.015 110.796 107.015 106.27C107.015 105.613 107.054 105.071 107.054 105.071C107.093 105.071 107.364 105.303 107.712 105.574C109.259 106.812 111 107.353 115.835 108.05C118.659 108.475 120.284 108.784 121.754 109.287C126.435 110.834 129.336 114.006 130.033 118.3C130.226 119.537 130.11 121.897 129.8 123.135C129.53 124.102 128.756 125.881 128.563 125.92C128.524 125.92 128.446 125.726 128.446 125.417C128.369 123.792 127.557 122.245 126.203 121.046C124.578 119.653 122.489 118.609 117.383 116.559Z" fill="#FF007A"/>
<path d="M111.967 117.835C111.89 117.255 111.696 116.52 111.58 116.211L111.387 115.631L111.735 116.056C112.238 116.636 112.625 117.333 112.973 118.3C113.244 119.035 113.244 119.267 113.244 120.466C113.244 121.626 113.205 121.897 112.973 122.554C112.586 123.599 112.122 124.334 111.348 125.146C109.955 126.577 108.137 127.351 105.545 127.699C105.081 127.737 103.766 127.854 102.605 127.931C99.7042 128.086 97.77 128.395 96.0292 129.014C95.7971 129.091 95.565 129.169 95.5263 129.13C95.4489 129.053 96.6481 128.356 97.6152 127.892C98.9692 127.235 100.362 126.887 103.418 126.345C104.927 126.113 106.474 125.804 106.861 125.649C110.69 124.45 112.586 121.471 111.967 117.835Z" fill="#FF007A"/>
<path d="M115.487 124.063C114.482 121.858 114.249 119.769 114.791 117.797C114.868 117.603 114.946 117.41 115.023 117.41C115.1 117.41 115.333 117.526 115.565 117.681C116.029 117.99 116.996 118.532 119.472 119.886C122.605 121.587 124.385 122.903 125.623 124.411C126.706 125.726 127.363 127.235 127.673 129.091C127.866 130.136 127.75 132.65 127.479 133.694C126.628 136.982 124.694 139.612 121.87 141.121C121.445 141.353 121.096 141.507 121.058 141.507C121.019 141.507 121.174 141.121 121.406 140.657C122.334 138.684 122.45 136.789 121.754 134.661C121.329 133.346 120.439 131.76 118.659 129.091C116.532 125.997 116.029 125.185 115.487 124.063Z" fill="#FF007A"/>
<path d="M86.6676 135.899C89.5303 133.501 93.0505 131.799 96.3 131.257C97.6926 131.025 100.014 131.103 101.29 131.451C103.34 131.992 105.197 133.153 106.164 134.584C107.093 135.976 107.518 137.175 107.944 139.844C108.099 140.889 108.292 141.972 108.331 142.204C108.64 143.596 109.259 144.679 110.033 145.259C111.232 146.149 113.321 146.188 115.371 145.414C115.719 145.298 116.029 145.182 116.029 145.221C116.106 145.298 115.062 145.994 114.365 146.342C113.398 146.845 112.625 147 111.58 147C109.723 147 108.137 146.033 106.861 144.099C106.59 143.712 106.048 142.591 105.584 141.546C104.23 138.413 103.534 137.485 101.948 136.44C100.555 135.551 98.7758 135.357 97.4218 136.015C95.6424 136.866 95.1781 139.148 96.416 140.54C96.9189 141.121 97.8474 141.585 98.621 141.701C100.052 141.894 101.29 140.773 101.29 139.341C101.29 138.413 100.942 137.872 100.014 137.446C98.7758 136.905 97.4218 137.523 97.4605 138.723C97.4605 139.225 97.6926 139.535 98.1955 139.767C98.505 139.922 98.505 139.922 98.2729 139.883C97.151 139.651 96.8802 138.258 97.77 137.369C98.8531 136.286 101.135 136.75 101.909 138.258C102.219 138.877 102.257 140.115 101.987 140.889C101.329 142.591 99.4721 143.48 97.5766 142.977C96.3 142.629 95.7584 142.281 94.211 140.695C91.5032 137.91 90.4587 137.369 86.5903 136.789L85.8553 136.673L86.6676 135.899Z" fill="#FF007A"/>
<path fill-rule="evenodd" clip-rule="evenodd" d="M66.3198 73.6632C75.3332 84.6096 89.2208 101.629 89.9171 102.557C90.4974 103.331 90.2653 104.065 89.2982 104.607C88.7566 104.916 87.6347 105.226 87.0932 105.226C86.4742 105.226 85.7392 104.916 85.2363 104.414C84.8882 104.065 83.3795 101.861 79.9753 96.5616C77.3835 92.5003 75.1785 89.1351 75.1398 89.0964C74.985 89.0191 74.985 89.0191 79.7045 97.4513C82.6832 102.75 83.6503 104.646 83.6503 104.878C83.6503 105.381 83.4955 105.651 82.8766 106.348C81.8321 107.508 81.3679 108.823 81.0198 111.569C80.6329 114.625 79.5884 116.791 76.6098 120.466C74.869 122.632 74.5982 123.019 74.1727 123.908C73.6311 124.991 73.4764 125.61 73.399 127.003C73.3216 128.472 73.4764 129.401 73.9019 130.793C74.2887 132.031 74.7143 132.843 75.7587 134.429C76.6485 135.822 77.19 136.866 77.19 137.253C77.19 137.562 77.2674 137.562 78.66 137.253C81.9869 136.479 84.7334 135.164 86.2421 133.539C87.1705 132.534 87.4026 131.992 87.4026 130.6C87.4026 129.71 87.364 129.517 87.1318 128.975C86.745 128.124 86.01 127.428 84.424 126.345C82.335 124.914 81.4453 123.753 81.2132 122.206C81.0198 120.891 81.2519 120.002 82.4124 117.565C83.6116 115.051 83.9211 114.006 84.1145 111.453C84.2305 109.829 84.424 109.171 84.8882 108.668C85.3911 108.127 85.8166 107.933 87.0158 107.779C88.9887 107.508 90.2653 107.005 91.271 106.038C92.1608 105.226 92.5476 104.414 92.5863 103.215L92.625 102.325L92.1221 101.783C90.3039 99.6947 65.1206 72 65.0045 72C64.9659 72 65.5848 72.7349 66.3198 73.6632ZM78.1956 128.666C78.6211 127.931 78.389 127.003 77.6927 126.538C77.0352 126.113 76.0295 126.306 76.0295 126.887C76.0295 127.041 76.1069 127.196 76.339 127.273C76.6871 127.467 76.7258 127.66 76.455 128.086C76.1842 128.511 76.1842 128.898 76.5324 129.169C77.0739 129.594 77.8088 129.362 78.1956 128.666Z" fill="#FF007A"/>
<path fill-rule="evenodd" clip-rule="evenodd" d="M93.8626 108.32C92.9343 108.591 92.0447 109.597 91.7739 110.602C91.6192 111.221 91.6966 112.343 91.9673 112.691C92.3928 113.233 92.7796 113.387 93.8626 113.387C95.99 113.387 97.808 112.459 98.0014 111.337C98.1948 110.409 97.3825 109.133 96.2608 108.552C95.6806 108.243 94.4815 108.127 93.8626 108.32ZM96.3381 110.254C96.6476 109.79 96.5315 109.287 95.9513 108.939C94.907 108.282 93.3211 108.823 93.3211 109.829C93.3211 110.332 94.1334 110.873 94.907 110.873C95.4098 110.873 96.1061 110.564 96.3381 110.254Z" fill="#FF007A"/>
<path d="M156.205 227.514C148.19 259.657 115.631 279.219 83.4803 271.204C51.3432 263.19 31.7793 230.632 39.7971 198.492C47.8079 166.345 80.3674 146.782 112.508 154.795C144.656 162.809 164.219 195.37 156.204 227.515L156.205 227.514Z" fill="#50AF95" fill-opacity="0.9"/>
</g>
<path fill-rule="evenodd" clip-rule="evenodd" d="M107.929 215.97V215.97C107.504 216.002 105.312 216.133 100.423 216.133C96.5338 216.133 93.7726 216.016 92.8039 215.97V215.97C77.7747 215.309 66.5567 212.693 66.5567 209.56C66.5567 206.428 77.7747 203.815 92.8039 203.144V213.365C93.7867 213.435 96.6009 213.601 100.49 213.601C105.157 213.601 107.494 213.407 107.914 213.368V203.151C122.912 203.819 134.105 206.435 134.105 209.56C134.105 212.686 122.915 215.302 107.914 215.967V215.967L107.929 215.97ZM107.929 202.094V192.947H128.858V179H71.874V192.947H92.8003V202.09C75.7913 202.871 63 206.241 63 210.278C63 214.316 75.7913 217.681 92.8003 218.466V247.775H107.925V218.456C124.895 217.674 137.665 214.309 137.665 210.275C137.665 206.241 124.906 202.875 107.925 202.09V202.09L107.929 202.094Z" fill="white" fill-opacity="0.65"/>
<path d="M209 159C209 192.137 182.137 219 149 219C115.863 219 89 192.137 89 159C89 125.863 115.863 99 149 99C182.137 99 209 125.863 209 159Z" fill="#EDF0F4"/>
<path d="M148.836 123L148.359 124.621V171.663L148.836 172.139L170.672 159.232L148.836 123Z" fill="#343434"/>
<path d="M148.836 123L127 159.232L148.836 172.139V149.306V123Z" fill="#8C8C8C"/>
<path d="M148.836 176.273L148.567 176.601V193.358L148.836 194.144L170.686 163.373L148.836 176.273Z" fill="#3C3C3B"/>
<path d="M148.836 194.144V176.273L127 163.373L148.836 194.144Z" fill="#8C8C8C"/>
<path d="M148.836 172.139L170.672 159.232L148.836 149.306V172.139Z" fill="#141414"/>
<path d="M127 159.232L148.836 172.139V149.306L127 159.232Z" fill="#393939"/>
<defs>
<linearGradient id="paint0_linear" x1="40" y1="52" x2="40" y2="172" gradientUnits="userSpaceOnUse">
<stop stop-color="#FEF3F9"/>
<stop offset="1" stop-color="#FDE5F2"/>
</linearGradient>
</defs>
</svg>
